<svg viewBox="0 0 512 512" xml:space="preserve" xmlns="http://www.w3.org/2000/svg"><path d="M371.518 232.8H38.647v50.149h10v-35.408L188.73 348.063a28.013 28.013 0 0 0 16.354 5.265c5.73 0 11.463-1.755 16.354-5.265l57.081-40.961-5.83-8.125-57.081 40.962a18.039 18.039 0 0 1-21.048-.001L59.191 242.8h291.782l-47.104 33.802 5.83 8.125 51.818-37.185v175.462l-108.436-84.558-6.148 7.886 105.051 81.918H58.187l105.044-81.918-6.15-7.886-108.434 84.561V302.238h-10V438.25h332.87V232.8z" fill="#6d83f2" class="fill-000000"></path><path d="m283.13 291.465 10.826-7.77 5.83 8.122-10.826 7.77zM261.095 137.745h26.478v10h-26.478zM287.572 177.808H432.18v10H287.572zM261.095 205.304h171.086v10H261.095zM389.669 232.8h42.512v10h-42.512zM304.002 137.745h42.636v10h-42.636zM389.669 356.078h42.512v10h-42.512zM389.669 379.412h42.512v10h-42.512z" fill="#6d83f2" class="fill-000000"></path><path d="M205.443 118.265h-17.819v-16.7c0-9.826 7.994-17.819 17.819-17.819s17.819 7.993 17.819 17.819v113.181h10V101.564a27.686 27.686 0 0 0-6.477-17.819h213.747c12.583 0 22.819 11.597 22.819 25.851v318.66h-73.684v9.999h83.684V109.596c0-19.769-14.723-35.851-32.819-35.851h-235.09c-15.34 0-27.819 12.479-27.819 27.819v26.7h27.819v-9.999z" fill="#6d83f2" class="fill-000000"></path></svg>