<svg viewBox="0 0 256 256" xml:space="preserve" xmlns="http://www.w3.org/2000/svg" enable-background="new 0 0 256 256"><path d="M220.4 84.8c-.4-2.3-2.7-4-5-4h-11.7c-1.8-7.3-4.7-14.3-8.7-20.8l1.1-1.1 7.3-7.3c1.7-1.7 1.9-4.3.5-6.2-6-8.3-13.3-15.6-21.6-21.5-1.9-1.4-4.5-1.1-6.2.6-1.5 1.5-3 3.1-4.6 4.6l-3.8 3.8c-6.5-3.9-13.5-6.8-20.9-8.6V12.5c0-2.4-1.7-4.4-4-4.7-10.1-1.6-19.7-1.6-29.8 0-2.4.4-4.1 2.5-4 5v11.6c-7.3 1.8-14.3 4.7-20.9 8.6l-3.8-3.8c-1.5-1.5-3.1-3-4.6-4.6-1.6-1.7-4.3-1.9-6.2-.6C65.3 29.8 58 37.1 52 45.4c-1.4 1.9-1.1 4.6.5 6.2 2.5 2.4 4.9 4.9 7.3 7.3l1.1 1.1c-3.9 6.5-6.8 13.5-8.7 20.8h-12c-2.4 0-4.4 1.7-4.7 4.1-.8 5.3-1.2 10.3-1.2 15.2 0 5.1.4 10.2 1.2 15.2.4 2.2 2.4 3.9 4.6 4h12c1.9 7.4 4.8 14.4 8.8 21-2.5 2.5-5 4.9-7.5 7.5-.4.4-.8.8-1.1 1.2-1.5 1.7-1.6 4.1-.3 5.9 6 8.2 13.2 15.4 21.5 21.3 1.9 1.4 4.8.9 6.5-.9 1.6-1.7 3.3-3.3 4.9-5 1.1-1 2.1-2.1 3.1-3.1.9.5 1.8 1.1 2.8 1.6 2.3 1.3 5.2.4 6.5-1.9s.4-5.2-1.9-6.5c-2.1-1.1-3.9-2.2-5.4-3.3-1.8-1.2-4.2-1-5.8.4l-.8.6-.3.3c-1.6 1.7-3.3 3.4-5 5.1l-2.4 2.4c-5-4-9.6-8.5-13.5-13.5 2.4-2.5 4.9-4.9 7.5-7.4.5-.5 1-1 1.3-1.5 1.1-1.6 1.1-3.7 0-5.3-5.1-7.6-8.6-16-10.3-24.8-.4-2.2-2.4-3.9-4.7-3.9H44.5c-.4-3.2-.5-6.4-.5-9.6 0-3.2.2-6.4.6-9.7 3.3 0 6.6 0 9.8.1 1 .1 2.1 0 3.1-.3 1.8-.5 3.1-1.9 3.4-3.7C62.6 77.6 66 69.5 71 62c1-1.6 1.1-3.6.1-5.2-.5-.9-1.2-1.6-2-2.3l-.3-.3-2.1-2.1c-1.5-1.5-2.9-3-4.4-4.4 4-5.1 8.6-9.6 13.7-13.6l1.7 1.7c1.8 1.8 3.6 3.5 5.2 5.2 1 1.1 2 1.8 3.2 2.2 1.4.5 3 .3 4.3-.5 7.5-4.9 15.7-8.3 24.4-10 1.8-.4 3.3-1.7 3.7-3.6.2-.7.3-1.4.2-2.4-.1-1.7-.1-3.4 0-5.2V16.2c6.3-.7 12.4-.7 18.7 0v5.2c0 1.7 0 3.4-.1 5.4 0 .8.1 1.5.3 2.2.4 1.8 1.9 3.2 3.7 3.6 8.7 1.7 16.9 5 24.4 10 1.3.8 2.8 1 4.3.5 1.1-.4 2.2-1.1 3.1-2.1 1.7-1.8 3.5-3.6 5.3-5.3l1.7-1.7c5.1 4 9.7 8.6 13.7 13.6l-4.4 4.4-2.1 2.1-.3.3c-.8.8-1.4 1.5-2 2.3-1 1.6-.9 3.6.1 5.2 5 7.5 8.4 15.6 10.1 24.3.4 1.8 1.7 3.2 3.4 3.7 1 .3 2 .4 2.9.3 3.3-.1 6.6-.1 9.9-.1.4 3.2.5 6.5.5 9.7 0 3.2-.2 6.5-.5 9.6h-11.5c-2.3 0-4.2 1.6-4.7 3.9-1.8 8.8-5.2 17.1-10.3 24.8-1.1 1.6-1.1 3.7 0 5.3.3.5.7.9 1.3 1.5 2.5 2.4 4.9 4.9 7.4 7.4-4 5-8.5 9.5-13.5 13.5l-2.7-2.7c-1.6-1.6-3.2-3.1-4.7-4.7l-.3-.3-.9-.7c-1.6-1.4-4-1.5-5.7-.3-1.7 1.2-3.5 2.2-5.4 3.2-2.3 1.3-3.2 4.2-1.9 6.5 1.3 2.3 4.2 3.2 6.5 1.9 1-.5 1.9-1.1 2.9-1.6l2.8 2.8c1.8 1.8 3.5 3.5 5.2 5.3.3.3.8.8 1.1 1 .8.5 1.7.8 2.7.8 1 0 2-.3 2.8-.9 8.3-5.9 15.5-13.1 21.4-21.3 1.3-1.8 1.2-4.3-.3-5.9-.3-.4-.7-.8-1.2-1.3-2.5-2.5-4.9-5-7.4-7.4 4-6.6 6.9-13.7 8.8-21h11.9c2.3 0 4.3-1.7 4.7-4 .8-5 1.2-10.1 1.2-15.2s-.4-10.2-1.2-15.2z" fill="#f8f8f8" class="fill-000000"></path><path d="M150.2 132.4c0-1.2-.3-2.5-.9-3.6l-14.4-27.2c-.4-.7-.9-1.4-1.3-1.7-1.5-1.5-3.5-2.4-5.4-2.3-2.2-.1-4.2.8-5.4 2.1-.6.6-1.1 1.2-1.5 2l-14.4 27.2c-.6 1.1-.9 2.3-.9 3.6l-.4 100.5c-.1 8.9 6.9 16.2 15.8 16.5l6.9.2 6.6-.2c8.9-.3 15.8-7.5 15.8-16.5l-.5-100.6zM128 109.1l10.4 19.6h-20.7l10.3-19.6zm6.4 130.7-6.3.2-6.6-.2c-3.7-.1-6.6-3.1-6.6-6.9l.4-94.7h25.2l.4 94.7c.1 3.7-2.8 6.7-6.5 6.9z" fill="#f8f8f8" class="fill-000000"></path></svg>