<svg viewBox="0 0 96 96" xmlns="http://www.w3.org/2000/svg"><path d="M48 0a48 48 0 1 0 48 48A48.047 48.047 0 0 0 48 0Zm.138 83.986c-.02 0-.04.006-.06.006-1.605-.52-4.823-5.669-6.967-15.238 2.297.13 4.6.246 6.889.246 2.292 0 4.599-.116 6.9-.246-2.124 9.555-5.286 14.7-6.762 15.232ZM48 57c-3.092 0-5.954-.133-8.654-.344C39.134 53.956 39 51.092 39 48s.133-5.954.344-8.654C42.044 39.134 44.908 39 48 39s5.954.133 8.654.344c.212 2.7.346 5.564.346 8.656s-.133 5.954-.344 8.654c-2.7.212-5.564.346-8.656.346Zm-35.986-8.862c0-.02-.006-.04-.006-.06.52-1.605 5.669-4.823 15.238-6.967C27.116 43.408 27 45.71 27 48c0 2.292.116 4.599.246 6.9-9.555-2.124-14.7-5.286-15.232-6.762Zm35.848-36.124c.02 0 .04-.006.06-.006 1.605.52 4.823 5.669 6.967 15.238C52.592 27.116 50.29 27 48 27c-2.292 0-4.599.116-6.9.246 2.124-9.555 5.286-14.7 6.762-15.232ZM68.754 41.1c9.555 2.123 14.7 5.286 15.232 6.76 0 .02.006.04.006.06-.52 1.606-5.669 4.824-15.238 6.968.13-2.297.246-4.6.246-6.889 0-2.292-.116-4.599-.246-6.9Zm11.267-9.21a74.694 74.694 0 0 0-12.682-3.23 74.694 74.694 0 0 0-3.23-12.682A36.023 36.023 0 0 1 80.02 31.891ZM31.89 15.98a74.685 74.685 0 0 0-3.23 12.682 74.673 74.673 0 0 0-12.68 3.229 36.02 36.02 0 0 1 15.91-15.91ZM15.98 64.11a74.656 74.656 0 0 0 12.681 3.23 74.656 74.656 0 0 0 3.229 12.68 36.015 36.015 0 0 1-15.91-15.91Zm48.13 15.91a74.673 74.673 0 0 0 3.23-12.681 74.685 74.685 0 0 0 12.68-3.229 36.02 36.02 0 0 1-15.91 15.91Z" fill="#f8f8f8" class="fill-000000"></path></svg>