<svg viewBox="0 0 24 24" xml:space="preserve" xmlns="http://www.w3.org/2000/svg" enable-background="new 0 0 24 24"><path d="M5 3a.5.5 0 0 1-.5-.5v-2a.5.5 0 0 1 1 0v2A.5.5 0 0 1 5 3z" fill="#6d83f2" class="fill-000000"></path><path d="M7 2H5a.5.5 0 1 1 0-1h2a.5.5 0 0 1 0 1z" fill="#6d83f2" class="fill-000000"></path><path d="M7 3a.5.5 0 0 1-.5-.5v-2a.5.5 0 0 1 1 0v2A.5.5 0 0 1 7 3zM11 1H9a.5.5 0 1 1 0-1h2a.5.5 0 0 1 0 1z" fill="#6d83f2" class="fill-000000"></path><path d="M10 3a.5.5 0 0 1-.5-.5v-2a.5.5 0 0 1 1 0v2a.5.5 0 0 1-.5.5zM16 3a.5.5 0 0 1-.5-.5V2l-.6.8c-.188.252-.611.252-.8 0l-.6-.8v.5a.5.5 0 1 1-1 0v-2a.5.5 0 0 1 .9-.3l1.1 1.466L15.6.2a.5.5 0 0 1 .9.3v2a.5.5 0 0 1-.5.5zM19.5 3H18a.5.5 0 0 1-.5-.5v-2a.5.5 0 0 1 1 0V2h1a.5.5 0 0 1 0 1zM12.5 24a.492.492 0 0 1-.137-.019l-7-2a.502.502 0 0 1-.361-.434l-1.5-16A.503.503 0 0 1 4 5h16a.498.498 0 0 1 .498.547l-1.5 16a.5.5 0 0 1-.34.427l-6 2A.503.503 0 0 1 12.5 24zm-6.534-2.887 6.523 1.863 5.544-1.848L19.451 6H4.549l1.417 15.113z" fill="#6d83f2" class="fill-000000"></path><path d="M12.5 20a.492.492 0 0 1-.137-.019l-3.5-1a.5.5 0 0 1-.348-.36l-.5-2a.5.5 0 1 1 .97-.242l.43 1.72 3.074.878 2.546-.849.412-4.128H8a.5.5 0 0 1-.496-.438l-.5-4A.5.5 0 0 1 7.5 9H17a.5.5 0 0 1 0 1H8.066l.375 3H16a.5.5 0 0 1 .498.55l-.5 5a.499.499 0 0 1-.339.424l-3 1A.514.514 0 0 1 12.5 20z" fill="#6d83f2" class="fill-000000"></path></svg>